<svg xmlns="http://www.w3.org/2000/svg" version="1.1" xmlns:xlink="http://www.w3.org/1999/xlink" xmlns:svgjs="http://svgjs.dev/svgjs" width="2000" height="2242" viewBox="0 0 2000 2242"><g transform="matrix(1,0,0,1,-3.1151183800621993,0)"><svg viewBox="0 0 321 360" data-background-color="#f5a1e8" preserveAspectRatio="xMidYMid meet" height="2242" width="2000" xmlns="http://www.w3.org/2000/svg" xmlns:xlink="http://www.w3.org/1999/xlink"><g id="tight-bounds" transform="matrix(1,0,0,1,0.5000234999999975,0)"><svg viewBox="0 0 320 360" height="360" width="320"><g><svg></svg></g><g><svg viewBox="0 0 320 360" height="360" width="320"><g><path transform="translate(-74.99272,-51.79039) scale(4.65793,4.65793)" d="M20.6 59.9l0.8 1-0.4-1.3c-0.1-0.6-0.8 0.1-0.4 0.3M21.5 59.3c0.3 0.5 0.6 1 0.6 1.5 0 0.7 0.6 1 1.1 1.2-0.7-0.8-1.1-3-1.7-2.7M59.9 16.9c1.7 0 3.3-0.2 5.1 0.2 4.4 1.1 8.1 3.3 10.6 6.4l7 11.2c0.3 2.8 0.9 5.9 0.8 9.3 0.7 0 0.6-1 1.4-1.2-0.8 2-1.2 4.5-1.4 7.4-0.5-1.6 0-4 0.1-5.3-0.7 1.1-1.1 0.3-1.1-0.2 0.1-0.8-0.3-0.7-0.6-1-1.1-1-1.8-2.1-2.6-3.8 0.5-1.3 0.6-3.2-1-4.2-0.5-0.3-1.1-0.8-1.4-1.6-0.4-1.1-1.1-2.4-0.9-4.1 0.1-0.5-1.5 1.1-2.4 0.4-3.9-2.7-7.8-5.8-12.5-8.4-2.5 0-4.3-0.9-5.2-2-0.8-1-0.2-2.3 1-2.4 0.7 0 1.5-0.2 2.1 0.2 0.1-0.4 0.5-0.9 1-0.9M50 14.6l0.2 0.1c1 0.2 1.5 1.6 2.6 1.1 0 0.7 0.1 1.4-0.1 1.9-0.3 0.8-1.2 0.8-1.9 0.8-6.7-0.4-10.6 2.4-14.7 4.8-1.1 0.7-2.3 1.2-3.2 2.1-4.3 4-9 7.7-10.1 15.1l-0.9 8.2c-0.1 0.9-1.1 1.8-0.9 2.9l0.7 4.9c-0.7-0.7-1.1 0.2-0.9 0.6 0.1 0.3 0.5 1.3 1.1 0.4 0.8 1.5 1.6 4.4 2.7 5.7 3.4 4 7.8 7.6 11.4 11.2 0.9-0.2 1.6-0.2 1.8-0.8 0.3 0.6-0.3 1.2-0.8 1.3 1.6 1 3.4 1.9 5.8 2.1 3.1 0.2 6 0.7 8.7 1.4 1.4-0.4 2.8-0.6 4.3-0.7 0.5 0 0.8-0.8 1.4-1l0.1-1c0.6 0.9 0.5-0.3 0.1-0.9 0.7 0.6 0.9 1.1 1.2 1.5 0-0.3 0.8-1.4 0.8-0.1l0.2-1.3c0.3-0.2 0.4 1.1 0.7 0.2 0.3-0.9 0.9-0.2 1.5-0.5-0.2 0.4-0.1 1.2 0.6 0.7l0.8-0.7c0.5 1.2 1.3 0.7 1.7 0.5 4.4-2.8 8.8-6.1 13-9.4l-0.1 1.3 0.5-1.6c0.5 0.5 0.9 0.1 1.1-0.2 0.6-1 1.4-2 2.7-2.9-1.6 4.3-3.5 7.7-5.9 10.5l-1 1.2c0 0.7-0.2 1.6-1 1.7-0.4 0.1-1.2-0.2-1.8 0.4-0.3 0.4 0.7 1.2-0.1 0.6-0.7-0.5-1.4 0-2.2 0.2-0.6 0.2 0.4 0.8 0.6 1.2 0.2 0.4 0.4 0.8 0.3 1.3l-1.1-1.2c-1.3 0.7-2.1 2-3.2 3-0.5 0.4-0.3 1.1-0.3 1.7-0.7 0-1.5-0.2-1.9 0.2-0.3 0.4-0.2 1-0.2 1.6-1-0.1-1.1-1.6-2-1.3-0.9 0.2-1.9 0.3-2.7 0.8 0.6 1.2-1 0.5-0.8 0.7-1.5-0.9-2.8-1.6-4.4-1-3.4-1.1-7.6-0.6-10.7-0.2 0-0.5 0.1-1-0.1-1.1-0.2 0.5-0.8 0.3-0.7 0.3-1.9-1.3-3.8-2.1-5.8-3.2-1.8 0.2-3.5-0.7-4-1.2-1.4-1.3-3-0.6-4.3-0.9-2.8-0.7-3.8-3.6-4.1-5.6-0.2-1-1-1.4-1.3-1.3-1.3-4.2-3.3-8-4.9-11.9-0.4-1-0.3-2-0.3-3.1 0.5 0.2 1 0.1 0.9-0.6-0.5-3.3-1.7-5.8-3-8.2 0.7-3.4 0.8-7.4 2.4-10.4 1.4-2.7 4-4.1 5.8-6.4 0.6-0.8 0.6-1.9 1.2-2.6 2-2 4-4.1 6.2-5.9 1-0.8 2.2 0 3.7-0.3 0.5-1.8 2.5-3.4 4.4-2.9 0.8 0.2 2.4-1.9 2.9-2.1 0.8-0.3 0.4 0.8 0.4 1.5 1.9-1.5 4.5-2.3 6.9-3.2" fill="#7c3aed" fill-rule="nonzero" stroke="none" stroke-width="1" stroke-linecap="butt" stroke-linejoin="miter" stroke-miterlimit="10" stroke-dasharray="" stroke-dashoffset="0" font-family="none" font-weight="none" font-size="none" text-anchor="none" style="mix-blend-mode: normal" data-fill-palette-color="tertiary"></path></g><g transform="matrix(1,0,0,1,64,122.87273340795286)"><svg viewBox="0 0 192 114.25453318409427" height="114.25453318409427" width="192"><g><svg viewBox="0 0 192 114.25453318409427" height="114.25453318409427" width="192"><g><svg viewBox="0 0 192 114.25453318409427" height="114.25453318409427" width="192"><g transform="matrix(1,0,0,1,0,70.61388517231224)"><svg viewBox="0 0 192 43.64064801178204" height="43.64064801178204" width="192"><g id="textblocktransform"><svg viewBox="0 0 192 43.64064801178204" height="43.64064801178204" width="192" id="textblock"><g><svg viewBox="0 0 192 43.64064801178204" height="43.64064801178204" width="192"><g transform="matrix(1,0,0,1,0,0)"><svg width="192" viewBox="0.35 -36.3 203.68 46.3" height="43.64064801178204" data-palette-color="#7c3aed"><path d="M10.15 0.3L10.15 0.3Q6.8 0.3 4.63-0.85 2.45-2 1.4-3.8 0.35-5.6 0.35-7.5L0.35-7.5Q0.35-9.35 1.25-11.03 2.15-12.7 3.83-13.8 5.5-14.9 7.8-14.9L7.8-14.9Q7.75-14.45 7.75-14.08 7.75-13.7 7.75-13.7L7.75-13.7Q7.75-10.35 8.4-8.43 9.05-6.5 10.05-5.68 11.05-4.85 12.1-4.85L12.1-4.85Q13.7-4.85 14.95-6.13 16.2-7.4 16.2-9.1L16.2-9.1Q16.2-11 14.58-12.45 12.95-13.9 10.45-15.65L10.45-15.65Q9.05-16.7 7.48-18.03 5.9-19.35 4.8-21.18 3.7-23 3.7-25.5L3.7-25.5Q3.7-28.1 4.93-30.1 6.15-32.1 8.18-33.48 10.2-34.85 12.63-35.58 15.05-36.3 17.45-36.3L17.45-36.3Q20.4-36.3 22.3-35.35 24.2-34.4 25.15-32.9 26.1-31.4 26.1-29.8L26.1-29.8Q26.1-28.3 25.28-26.93 24.45-25.55 22.85-24.7 21.25-23.85 18.9-23.85L18.9-23.85Q19.05-24.55 19.1-25.13 19.15-25.7 19.15-26.15L19.15-26.15Q19.15-28.65 18.07-29.73 17-30.8 15.7-30.8L15.7-30.8Q14.45-30.8 13.3-29.88 12.15-28.95 12.15-26.9L12.15-26.9Q12.15-25.15 13.08-23.9 14-22.65 15.48-21.7 16.95-20.75 18.6-19.85L18.6-19.85Q20.3-18.95 21.88-17.88 23.45-16.8 24.5-15.35 25.55-13.9 25.55-11.7L25.55-11.7Q25.55-9.4 24.3-7.23 23.05-5.05 20.9-3.38 18.75-1.7 15.98-0.7 13.2 0.3 10.15 0.3ZM35.75 0.2L35.75 0.2Q34.15 0.2 32.72-0.53 31.3-1.25 30.42-2.8 29.55-4.35 29.55-6.75L29.55-6.75Q29.55-8.05 29.8-10.15 30.05-12.25 30.47-14.75 30.9-17.25 31.35-19.75L31.35-19.75Q30.35-19.7 29.42-19.55 28.5-19.4 27.6-19.2L27.6-19.2 27.5-19.55Q28.5-20.75 29.6-21.6 30.7-22.45 31.9-23L31.9-23Q32.55-26.3 33-28.73 33.45-31.15 33.45-31.6L33.45-31.6Q33.45-32.45 34.77-33 36.1-33.55 37.75-33.55L37.75-33.55Q39.2-33.55 40.47-33 41.75-32.45 42.2-31.15L42.2-31.15Q41.9-30.85 41.35-28.93 40.8-27 40.2-24.25L40.2-24.25Q41.15-24.2 42.15-24.15 43.15-24.1 44.2-24L44.2-24Q44.3-23.7 44.35-23.35 44.4-23 44.4-22.6L44.4-22.6Q44.4-21.85 44.17-20.98 43.95-20.1 43.65-19.4L43.65-19.4Q42.45-19.5 41.4-19.63 40.35-19.75 39.35-19.8L39.35-19.8Q38.95-17.65 38.62-15.5 38.3-13.35 38.12-11.6 37.95-9.85 37.95-8.85L37.95-8.85Q37.95-6.75 38.72-6.05 39.5-5.35 40.6-5.35L40.6-5.35Q41.6-5.35 42.4-5.75 43.2-6.15 43.55-6.7L43.55-6.7 44.05-6.55Q43.75-4.5 42.45-2.98 41.15-1.45 39.35-0.63 37.55 0.2 35.75 0.2ZM64.5 0.25L64.5 0.25Q62.75 0.25 61.45-0.9 60.15-2.05 60.15-4.65L60.15-4.65Q60.15-4.9 60.15-5.15 60.15-5.4 60.2-5.65L60.2-5.65Q58.7-2.65 56.82-1.23 54.95 0.2 53.05 0.2L53.05 0.2Q51.3 0.2 49.75-1.03 48.2-2.25 47.25-4.65 46.3-7.05 46.3-10.45L46.3-10.45Q46.3-13.95 47.27-16.7 48.25-19.45 49.84-21.35 51.45-23.25 53.34-24.23 55.25-25.2 57.05-25.2L57.05-25.2Q59.05-25.2 60.65-23.98 62.25-22.75 62.84-20.1L62.84-20.1Q63-20.95 63.07-21.65 63.15-22.35 63.15-22.6L63.15-22.6Q63.2-23.95 64.52-24.6 65.84-25.25 67.45-25.25L67.45-25.25Q68.84-25.25 70.09-24.7 71.34-24.15 71.8-22.85L71.8-22.85 71.9-22.55Q71.3-21.2 70.7-19.3 70.09-17.4 69.59-15.33 69.09-13.25 68.8-11.28 68.5-9.3 68.5-7.8L68.5-7.8Q68.5-6.15 68.84-5.53 69.2-4.9 69.7-4.9L69.7-4.9Q70.55-4.9 71.25-6.1L71.25-6.1 71.65-5.9Q71.65-4.2 70.55-2.8 69.45-1.4 67.8-0.58 66.15 0.25 64.5 0.25ZM56.34-6.1L56.34-6.1Q57.65-6.1 59.22-8.43 60.8-10.75 61.95-15.1L61.95-15.1Q62.05-15.55 62.15-15.98 62.25-16.4 62.3-16.8L62.3-16.8Q61.5-18.65 60.62-19.43 59.75-20.2 58.9-20.2L58.9-20.2Q57.65-20.2 56.57-18.88 55.5-17.55 54.82-15.55 54.15-13.55 54.15-11.55L54.15-11.55Q54.15-8.8 54.77-7.45 55.4-6.1 56.34-6.1ZM84.84 10L84.84 10Q82.34 10 80.82 8.47 79.29 6.95 79.29 4.35L79.29 4.35Q79.29 3 79.77 1.38 80.24-0.25 81.34-2.05L81.34-2.05Q78.89-2.2 77.32-3.7 75.74-5.2 75.74-8.25L75.74-8.25Q75.74-10.05 76.22-12.13 76.69-14.2 77.14-16.03 77.59-17.85 77.59-18.85L77.59-18.85Q77.59-19.6 77.29-19.93 76.99-20.25 76.59-20.25L76.59-20.25Q76.19-20.25 75.72-19.93 75.24-19.6 74.99-18.95L74.99-18.95 74.14-19.85Q74.44-21.4 75.44-22.6 76.44-23.8 77.89-24.5 79.34-25.2 80.89-25.2L80.89-25.2Q82.64-25.2 83.94-24.08 85.24-22.95 85.24-20L85.24-20Q85.24-18.15 84.79-16.03 84.34-13.9 83.89-12.03 83.44-10.15 83.44-9.05L83.44-9.05Q83.44-8.05 83.87-7.58 84.29-7.1 84.84-7.1L84.84-7.1Q85.54-7.1 86.44-7.88 87.34-8.65 88.14-10.45 88.94-12.25 89.19-15.3L89.19-15.3Q89.29-16.25 89.34-17.73 89.39-19.2 89.44-20.48 89.49-21.75 89.49-22.05L89.49-22.05Q89.49-23.85 90.82-24.58 92.14-25.3 93.74-25.3L93.74-25.3Q95.14-25.3 96.39-24.75 97.64-24.2 98.09-22.9L98.09-22.9 98.19-22.6Q97.74-22.2 97.42-19.9 97.09-17.6 96.64-13.75L96.64-13.75Q96.34-11.25 95.89-8.1 95.44-4.95 94.67-1.78 93.89 1.4 92.62 4.08 91.34 6.75 89.44 8.38 87.54 10 84.84 10ZM83.64 4.25L83.64 4.25Q85.19 4.25 86.42 1.43 87.64-1.4 88.34-6.6L88.34-6.6Q85.14-2.5 83.94-0.15 82.74 2.2 82.74 3.25L82.74 3.25Q82.74 4.25 83.64 4.25ZM109.69 0.35L109.69 0.35Q106.34 0.35 104.14-0.88 101.94-2.1 100.89-4.08 99.84-6.05 99.84-8.35L99.84-8.35Q99.84-10.4 100.64-12.4 101.44-14.4 103.02-16.05 104.59-17.7 106.84-18.65L106.84-18.65Q104.79-19.95 103.77-21.78 102.74-23.6 102.74-25.6L102.74-25.6Q102.74-28.2 104.44-30.65 106.14-33.1 109.39-34.7 112.64-36.3 117.19-36.3L117.19-36.3Q120.34-36.3 122.22-35.52 124.09-34.75 124.94-33.52 125.79-32.3 125.79-30.9L125.79-30.9Q125.79-29.3 124.79-27.73 123.79-26.15 121.92-25.15 120.04-24.15 117.34-24.15L117.34-24.15Q118.14-26.5 118.14-28.05L118.14-28.05Q118.14-29.6 117.49-30.3 116.84-31 115.89-31L115.89-31Q114.89-31 113.77-30.25 112.64-29.5 111.89-28.15 111.14-26.8 111.14-25L111.14-25Q111.14-24.05 111.44-22.88 111.74-21.7 112.39-20.55L112.39-20.55Q113.49-21.25 114.42-21.58 115.34-21.9 116.09-21.9L116.09-21.9Q117.64-21.9 118.34-20.83 119.04-19.75 119.04-18.4L119.04-18.4Q119.04-16.8 118.07-15.35 117.09-13.9 115.19-13.9L115.19-13.9Q113.44-13.9 111.09-15.55L111.09-15.55Q108.34-13.6 108.34-10.95L108.34-10.95Q108.34-8.9 109.62-7.85 110.89-6.8 112.89-6.8L112.89-6.8Q115.44-6.8 118.59-8.58 121.74-10.35 124.19-13.9L124.19-13.9 124.59-13.65Q124.49-10.15 123.17-7.53 121.84-4.9 119.72-3.15 117.59-1.4 114.99-0.53 112.39 0.35 109.69 0.35ZM145.74 0.25L145.74 0.25Q143.99 0.25 142.69-0.9 141.39-2.05 141.39-4.65L141.39-4.65Q141.39-4.9 141.39-5.15 141.39-5.4 141.44-5.65L141.44-5.65Q139.94-2.65 138.06-1.23 136.19 0.2 134.29 0.2L134.29 0.2Q132.54 0.2 130.99-1.03 129.44-2.25 128.49-4.65 127.54-7.05 127.54-10.45L127.54-10.45Q127.54-13.95 128.51-16.7 129.49-19.45 131.09-21.35 132.69-23.25 134.59-24.23 136.49-25.2 138.29-25.2L138.29-25.2Q140.29-25.2 141.89-23.98 143.49-22.75 144.09-20.1L144.09-20.1Q144.24-20.95 144.31-21.65 144.39-22.35 144.39-22.6L144.39-22.6Q144.44-23.95 145.76-24.6 147.09-25.25 148.69-25.25L148.69-25.25Q150.09-25.25 151.34-24.7 152.59-24.15 153.04-22.85L153.04-22.85 153.14-22.55Q152.54-21.2 151.94-19.3 151.34-17.4 150.84-15.33 150.34-13.25 150.04-11.28 149.74-9.3 149.74-7.8L149.74-7.8Q149.74-6.15 150.09-5.53 150.44-4.9 150.94-4.9L150.94-4.9Q151.79-4.9 152.49-6.1L152.49-6.1 152.89-5.9Q152.89-4.2 151.79-2.8 150.69-1.4 149.04-0.58 147.39 0.25 145.74 0.25ZM137.59-6.1L137.59-6.1Q138.89-6.1 140.46-8.43 142.04-10.75 143.19-15.1L143.19-15.1Q143.29-15.55 143.39-15.98 143.49-16.4 143.54-16.8L143.54-16.8Q142.74-18.65 141.86-19.43 140.99-20.2 140.14-20.2L140.14-20.2Q138.89-20.2 137.81-18.88 136.74-17.55 136.06-15.55 135.39-13.55 135.39-11.55L135.39-11.55Q135.39-8.8 136.01-7.45 136.64-6.1 137.59-6.1ZM164.24 0.45L164.24 0.45Q161.14 0.45 159.09-0.4 157.04-1.25 156.04-2.58 155.04-3.9 155.04-5.25L155.04-5.25Q155.04-7.15 156.74-8.63 158.44-10.1 161.34-10.1L161.34-10.1Q161.34-7.55 161.99-6.03 162.64-4.5 163.66-3.85 164.69-3.2 165.64-3.2L165.64-3.2Q166.79-3.2 167.56-3.88 168.34-4.55 168.34-5.55L168.34-5.55Q168.34-6.95 166.89-8 165.44-9.05 163.14-10.35L163.14-10.35Q161.99-11.05 160.64-11.98 159.29-12.9 158.34-14.23 157.39-15.55 157.39-17.4L157.39-17.4Q157.39-19.35 158.51-20.85 159.64-22.35 161.49-23.38 163.34-24.4 165.49-24.93 167.64-25.45 169.69-25.45L169.69-25.45Q173.54-25.45 175.49-23.9 177.44-22.35 177.44-20.6L177.44-20.6Q177.44-19.1 175.94-17.9 174.44-16.7 171.34-16.7L171.34-16.7Q171.39-19.25 170.29-20.43 169.19-21.6 167.94-21.6L167.94-21.6Q167.04-21.6 166.44-21.05 165.84-20.5 165.84-19.45L165.84-19.45Q165.84-18.25 166.61-17.38 167.39-16.5 168.56-15.83 169.74-15.15 170.99-14.55L170.99-14.55Q172.69-13.75 174.19-12.85 175.69-11.95 176.64-10.8 177.59-9.65 177.59-8L177.59-8Q177.59-5.75 175.76-3.83 173.94-1.9 170.89-0.73 167.84 0.45 164.24 0.45ZM191.23 0.35L191.23 0.35Q187.58 0.35 185.18-1.13 182.78-2.6 181.58-5.03 180.38-7.45 180.38-10.25L180.38-10.25Q180.38-12.9 181.41-15.58 182.43-18.25 184.41-20.45 186.38-22.65 189.21-24 192.03-25.35 195.58-25.35L195.58-25.35Q199.98-25.35 202.01-23.38 204.03-21.4 204.03-18.6L204.03-18.6Q204.03-16.2 202.76-14.18 201.48-12.15 199.38-10.93 197.28-9.7 194.78-9.7L194.78-9.7Q193.48-9.7 192.13-10.1 190.78-10.5 189.48-11.35L189.48-11.35Q189.73-8.25 191.28-6.85 192.83-5.45 194.98-5.45L194.98-5.45Q196.48-5.45 197.98-6.03 199.48-6.6 200.76-7.53 202.03-8.45 202.73-9.5L202.73-9.5 203.08-9.25Q203.08-6.65 202.01-4.83 200.93-3 199.18-1.85 197.43-0.7 195.36-0.18 193.28 0.35 191.23 0.35ZM192.38-13.15L192.38-13.15Q193.98-13.15 194.98-14.08 195.98-15 196.48-16.25 196.98-17.5 196.98-18.45L196.98-18.45Q196.98-19.6 196.33-20.38 195.68-21.15 194.53-21.15L194.53-21.15Q193.63-21.15 192.56-20.5 191.48-19.85 190.63-18.28 189.78-16.7 189.53-13.9L189.53-13.9Q191.13-13.15 192.38-13.15Z" opacity="1" transform="matrix(1,0,0,1,0,0)" fill="#7c3aed" class="wordmark-text-0" data-fill-palette-color="primary" id="text-0"></path></svg></g></svg></g></svg></g></svg></g><g transform="matrix(1,0,0,1,40.71354858723314,0)"><svg viewBox="0 0 110.57290282553372 60.31137555228278" height="60.31137555228278" width="110.57290282553372"><g><svg xmlns="http://www.w3.org/2000/svg" xmlns:xlink="http://www.w3.org/1999/xlink" version="1.1" x="0" y="0" viewBox="5 25.455 90 49.09" enable-background="new 0 0 100 100" xml:space="preserve" height="60.31137555228278" width="110.57290282553372" class="icon-icon-0" data-fill-palette-color="accent" id="icon-0"><g fill="#7c3aed" data-fill-palette-color="accent"><polygon fill="#7c3aed" points="88.864,50 86.818,50 13.182,50 13.182,25.455 5,25.455 5,50 5,66.364 5,74.545 13.182,74.545    13.182,66.364 86.818,66.364 86.818,74.545 95,74.545 95,50  " data-fill-palette-color="accent"></polygon><rect x="17.273" y="35.682" fill="#7c3aed" width="20.454" height="8.182" data-fill-palette-color="accent"></rect></g></svg></g></svg></g><g></g></svg></g></svg></g></svg></g></svg></g><defs></defs></svg><rect width="320" height="360" fill="none" stroke="none" visibility="hidden"></rect></g></svg></g></svg>